<svg width="456" height="182" viewBox="0 0 456 182" fill="none" xmlns="http://www.w3.org/2000/svg">
<path fill-rule="evenodd" clip-rule="evenodd" d="M110.102 1.06723C110.347 0.576843 109.99 -0.000139253 109.44 -0.000139301L76.3392 -0.000142189C75.7895 -0.000142237 75.432 0.57684 75.6778 1.06723L89.6347 26.2987C91.0673 28.8887 94.7122 28.8887 96.1448 26.2987L110.102 1.06723Z" fill="white"/>
<path d="M444.997 75.3103C452.728 83.0267 456 92.8482 456 103.552V182H427.706V103.552C427.706 100.316 426.806 97.8242 424.562 95.584L358.829 31.7369C356.585 29.4966 353.842 28.3765 350.6 28.3765L290.95 28.2414V0H349.111C360.083 0 371.246 4.8353 378.977 12.5517L444.997 75.3103ZM273.914 11.5746L337.881 75.7951C345.612 83.5115 349.111 92.8482 349.111 103.552V182H320.816V103.552C320.816 100.316 319.926 97.8242 317.681 95.584L253.225 31.3793C250.98 29.139 248.607 28.2414 245.365 28.2414H226.502C223.011 28.2414 219.315 29.139 217.071 31.3793C214.826 33.6195 213.927 37.3082 213.927 40.7931V182H185.633V40.7931C185.633 29.8407 187.333 20.2681 195.064 12.5517C202.795 4.8353 212.386 0 223.358 0H248.509C259.482 0 266.184 3.8582 273.914 11.5746Z" fill="white"/>
<path d="M157.339 0H185.633L113.325 169.448C111.58 173.431 108.407 176.508 104.666 178.997C101.175 181.238 97.3096 182 93.0701 182C88.8306 182 84.8404 181.238 81.0996 178.997C77.6083 176.508 74.2016 173.431 72.4559 169.448L0.148438 0H28.4427L91.1997 142.776C91.4491 143.771 92.0725 144.345 93.0701 144.345C94.0676 144.345 94.6911 143.771 94.9404 142.776L157.339 0Z" fill="white"/>
</svg>
