<svg width="730" height="182" viewBox="0 0 730 182" fill="none" xmlns="http://www.w3.org/2000/svg">
<path d="M729.363 182V153.758L578.46 153.621V128.655H577.624C564.196 128.655 553.31 139.521 553.31 152.924V182H729.363Z" fill="white"/>
<path d="M563.355 94.8272C571.085 102.544 580.062 106.69 591.035 106.69H729.363V78.4482H592.986C589.745 78.4482 586.048 76.9052 583.555 74.665C581.31 72.4247 580.411 69.3813 580.411 65.8965V40.7931C580.411 37.3082 581.31 33.8162 583.555 31.576C586.048 29.3357 589.745 28.2414 592.986 28.2414H729.363V24.2694C729.363 10.8658 718.476 0 705.048 0H594.179C583.206 0 571.085 3.6973 563.355 11.4137C555.624 19.1301 553.31 26.7028 553.31 37.6551V65.8965C553.31 76.8488 555.624 87.1108 563.355 94.8272Z" fill="white"/>
<path fill-rule="evenodd" clip-rule="evenodd" d="M308.014 1.06723C308.26 0.576843 307.902 -0.000139253 307.352 -0.000139301L274.251 -0.000142189C273.702 -0.000142237 273.344 0.57684 273.59 1.06723L287.547 26.2987C288.979 28.8887 292.624 28.8887 294.057 26.2987L308.014 1.06723Z" fill="white"/>
<path d="M531.303 1.62721e-05H503.009L502.756 144.869C502.756 146.612 502.133 148.105 500.886 149.35C499.888 150.346 498.517 150.843 496.771 150.843C491.783 150.843 488.292 148.728 486.297 144.496L423.078 21.6558C420.834 17.1753 417.841 13.317 414.101 10.0811C410.609 6.84522 406.619 4.35606 402.13 2.61364C397.641 0.871227 391.676 1.62721e-05 386.689 1.62721e-05L352.107 0V141.207C352.107 144.692 350.298 148.381 348.054 150.621C345.81 152.862 342.942 153.982 339.45 153.982H284.087C280.845 153.982 278.102 152.862 275.858 150.621L232.642 106.69C230.398 104.449 229.498 101.958 229.498 98.7222V0.000167583H201.204V97.2759C201.204 108.228 204.16 119.009 211.891 126.725L256.032 170.784C263.763 178.5 271.97 182 282.943 182H339.531C350.504 182 360.523 178.5 368.254 170.784C375.985 163.067 380.401 152.159 380.401 141.207V28.2415L386.689 28.2415C391.427 28.2415 395.771 30.4923 398.015 34.7239L461.234 157.564C463.478 162.045 468.08 169.35 471.571 172.586C471.763 172.752 471.95 172.914 472.135 173.074C475.561 176.044 477.923 178.091 482.182 179.744C486.671 181.487 491.734 182 496.722 182C506.198 182 513.979 178.998 520.712 172.277C527.695 165.307 531.303 153.804 531.303 144.345V1.62721e-05Z" fill="white"/>
<path d="M171.326 78.353C176.812 72.8769 179.197 67.586 179.197 59.6206V40.7931C179.197 29.8407 175.69 19.3863 167.959 11.6698C160.229 3.95344 152.444 0 141.471 0H12.5752C9.08386 0 6.23457 1.33981 3.74074 3.82898C1.24691 6.31815 0 9.06688 0 12.5517V40.7931C0 48.7584 2.24445 56.8482 6.73334 63.569C11.2222 70.2897 17.0827 75.4612 24.3148 78.4482L144.019 127.416C148.757 129.407 150.903 132.842 150.903 138.069V182H179.197V138.069C179.197 130.104 177.311 122.687 172.822 116.215C168.333 109.494 162.473 104.516 155.241 101.28L35.5371 51.9943C30.7988 50.003 28.4296 46.3937 28.4296 41.1665V28.4717H139.156C142.647 28.4717 145.515 29.5919 147.759 31.8321C150.004 34.0724 151.126 36.9349 151.126 40.4197L150.903 84.7241C158.883 84.7241 165.84 83.8292 171.326 78.353Z" fill="white"/>
<path d="M28.2942 182V103.552H24.3148C10.8861 103.552 0 114.417 0 127.821V182H28.2942Z" fill="white"/>
</svg>
