<svg width="157" height="49" fill="none" xmlns="http://www.w3.org/2000/svg"><g filter="url(#a)"><path d="M1 2v39l6 8h149l1-1V17L145 1H2L1 2Z" fill="#292C2E" fill-opacity=".2"/><path d="M2 9V2h143l11 15h1v31l-1 1H7v-1l-5-7V9Z" stroke="#07FBFF"/></g><path d="M1 0 0 1v3l2 2V3l1-1h15l-2-2H1ZM129 1h16l11 16v31a1 1 0 0 1-2 0V19L143 3h-13l-1-2Z" fill="#07FBFF"/><defs><filter id="a" x="-19" y="-19" width="196" height="88" filterUnits="userSpaceOnUse" color-interpolation-filters="sRGB"><feFlood flood-opacity="0" result="BackgroundImageFix"/><feGaussianBlur in="BackgroundImageFix" stdDeviation="10"/><feComposite in2="SourceAlpha" operator="in" result="effect1_backgroundBlur_2347_1423"/><feBlend in="SourceGraphic" in2="effect1_backgroundBlur_2347_1423" result="shape"/></filter></defs></svg>