<svg width="211" height="49" viewBox="0 0 211 49" fill="none" xmlns="http://www.w3.org/2000/svg">
<g filter="url(#filter0_b_2309_1956)">
<path d="M1 2V9V40.5858C1 40.851 1.10536 41.1054 1.29289 41.2929L8.70711 48.7071C8.89464 48.8946 9.149 49 9.41422 49H210C210.552 49 211 48.5523 211 48V41V17.4142C211 17.149 210.895 16.8946 210.707 16.7071L195.293 1.29289C195.105 1.10536 194.851 1 194.586 1H2C1.44772 1 1 1.44772 1 2Z" fill="#292C2E" fill-opacity="0.2"/>
<path d="M194.939 1.64644L195.293 1.29289L194.939 1.64645L210.354 17.0607C210.447 17.1544 210.5 17.2816 210.5 17.4142V41V48C210.5 48.2761 210.276 48.5 210 48.5H9.41422C9.2816 48.5 9.15443 48.4473 9.06066 48.3536L1.64645 40.9393C1.55268 40.8456 1.5 40.7184 1.5 40.5858V9V2C1.5 1.72386 1.72386 1.5 2 1.5H194.586C194.718 1.5 194.846 1.55268 194.939 1.64644Z" stroke="#07FBFF"/>
</g>
<path d="M179 1H194.583C194.85 1 195.106 1.10684 195.294 1.29672L210.793 16.9641C210.816 16.9871 210.847 17 210.879 17V17C210.946 17 211 17.0542 211 17.1211V17.1704C211 17.1712 211 17.1719 211.001 17.1725V17.1725C211.002 17.1736 211.002 17.1755 211.001 17.1766V17.1766C211 17.1772 211 17.1779 211 17.1787V48C211 48.5523 210.552 49 210 49V49C209.448 49 209 48.5523 209 48V19.2427C209 18.9775 208.895 18.7231 208.707 18.5356L193.464 3.29289C193.277 3.10536 193.023 3 192.757 3H181.414C181.149 3 180.895 2.89464 180.707 2.70711L179 1Z" fill="#07FBFF"/>
<path d="M1 0C0.447715 0 0 0.447715 0 1V3.58579C0 3.851 0.105357 4.10536 0.292893 4.29289L2 6V3C2 2.44772 2.44772 2 3 2H18L16.2929 0.292893C16.1054 0.105357 15.851 0 15.5858 0H1Z" fill="#07FBFF"/>
<defs>
<filter id="filter0_b_2309_1956" x="-19" y="-19" width="250" height="88" filterUnits="userSpaceOnUse" color-interpolation-filters="sRGB">
<feFlood flood-opacity="0" result="BackgroundImageFix"/>
<feGaussianBlur in="BackgroundImageFix" stdDeviation="10"/>
<feComposite in2="SourceAlpha" operator="in" result="effect1_backgroundBlur_2309_1956"/>
<feBlend mode="normal" in="SourceGraphic" in2="effect1_backgroundBlur_2309_1956" result="shape"/>
</filter>
</defs>
</svg>
