<svg width="155" height="48" viewBox="0 0 155 48" fill="none" xmlns="http://www.w3.org/2000/svg">
<g filter="url(#filter0_b_2309_1966)">
<path d="M7.70711 0.292892L0.292893 7.70711C0.105357 7.89464 0 8.149 0 8.41421V39.5858C0 39.851 0.105357 40.1054 0.292893 40.2929L7.70711 47.7071C7.89464 47.8946 8.149 48 8.41422 48H141.586C141.851 48 142.105 47.8946 142.293 47.7071L149.707 40.2929C149.895 40.1054 150 39.851 150 39.5858V8.41421C150 8.149 149.895 7.89464 149.707 7.70711L142.293 0.292893C142.105 0.105357 141.851 0 141.586 0H8.41421C8.149 0 7.89464 0.105356 7.70711 0.292892Z" fill="#292C2E" fill-opacity="0.2"/>
<path d="M141.939 0.646441L142.293 0.292893L141.939 0.646447L149.354 8.06066C149.447 8.15443 149.5 8.28161 149.5 8.41421V39.5858C149.5 39.7184 149.447 39.8456 149.354 39.9393L141.939 47.3536C141.846 47.4473 141.718 47.5 141.586 47.5H8.41422C8.2816 47.5 8.15443 47.4473 8.06066 47.3536L0.646447 39.9393C0.55268 39.8456 0.5 39.7184 0.5 39.5858V8.41421C0.5 8.2816 0.552678 8.15443 0.646447 8.06066L8.06066 0.646446C8.15443 0.552678 8.2816 0.5 8.41421 0.5H141.586C141.718 0.5 141.846 0.552682 141.939 0.646441Z" stroke="#D3ABFF"/>
</g>
<path d="M1 16L2.70711 17.7071C2.89464 17.8946 3 18.149 3 18.4142V29.5858C3 29.851 2.89464 30.1054 2.70711 30.2929L1 32V16Z" fill="#D3ABFF"/>
<path d="M149 16L147.293 17.7071C147.105 17.8946 147 18.149 147 18.4142V29.5858C147 29.851 147.105 30.1054 147.293 30.2929L149 32V16Z" fill="#D3ABFF"/>
<circle cx="150" cy="24" r="4.5" fill="#0E0F0F" stroke="#D3ABFF"/>
<defs>
<filter id="filter0_b_2309_1966" x="-20" y="-20" width="190" height="88" filterUnits="userSpaceOnUse" color-interpolation-filters="sRGB">
<feFlood flood-opacity="0" result="BackgroundImageFix"/>
<feGaussianBlur in="BackgroundImageFix" stdDeviation="10"/>
<feComposite in2="SourceAlpha" operator="in" result="effect1_backgroundBlur_2309_1966"/>
<feBlend mode="normal" in="SourceGraphic" in2="effect1_backgroundBlur_2309_1966" result="shape"/>
</filter>
</defs>
</svg>
