<svg width="204" height="258" viewBox="0 0 204 258" fill="none" xmlns="http://www.w3.org/2000/svg">
<path d="M2.30874 16.2574L12.0508 2.77825C13.0849 1.34744 14.743 0.5 16.5084 0.5H186.458C188.145 0.5 189.738 1.274 190.781 2.59982L201.741 16.5346C202.721 17.7802 202.789 19.5144 201.91 20.8333C201.4 21.5994 201.128 22.4994 201.128 23.4199V52.0409C201.128 53.3267 200.677 54.5718 199.855 55.56L196.702 59.3462C195.73 60.514 195.198 61.9856 195.198 63.5052V94.45C195.198 95.9301 195.836 97.3381 196.95 98.3133C197.846 99.0985 198.36 100.232 198.36 101.424V155.649C198.36 156.949 197.844 158.196 196.925 159.116C195.819 160.223 195.198 161.724 195.198 163.29V194.495C195.198 196.014 195.73 197.486 196.702 198.654L199.855 202.44C200.677 203.428 201.128 204.673 201.128 205.959V234.123C201.128 235.078 201.387 236.016 201.879 236.836C202.791 238.358 202.669 240.285 201.572 241.68L190.781 255.4C189.738 256.726 188.145 257.5 186.458 257.5H16.5084C14.743 257.5 13.0849 256.653 12.0508 255.222L2.30874 241.743C1.27111 240.307 1.18886 238.391 2.09963 236.872C2.6051 236.029 2.87209 235.064 2.87209 234.081V205.544C2.87209 204.269 3.31495 203.034 4.12493 202.049L6.92635 198.644C7.88361 197.481 8.40698 196.021 8.40698 194.515V163.29C8.40698 161.724 7.78556 160.223 6.67929 159.116C5.76037 158.196 5.24419 156.949 5.24419 155.649V101.56C5.24419 100.259 5.76037 99.0124 6.67929 98.0927C7.78556 96.9854 8.40698 95.4842 8.40698 93.919V63.3915C8.40698 61.9471 7.92583 60.5438 7.03951 59.4032L4.02918 55.5293C3.27922 54.5641 2.87209 53.3767 2.87209 52.1545V23.9192C2.87209 22.9361 2.6051 21.9714 2.09963 21.1282C1.18886 19.6089 1.27111 17.693 2.30874 16.2574Z" stroke="#3D4747"/>
</svg>
