<svg width="256" height="326" viewBox="0 0 256 326" fill="none" xmlns="http://www.w3.org/2000/svg">
<g filter="url(#filter0_b_2309_1988)">
<path d="M1.40729 20.1723L13.006 4.1388C14.8864 1.53936 17.8999 0 21.1082 0H233.645C236.711 0 239.607 1.40587 241.503 3.8144L254.64 20.5021C256.048 22.2903 256.146 24.781 254.884 26.6746C254.307 27.5388 254 28.5543 254 29.5929V64.8795C254 67.2189 253.18 69.4842 251.682 71.2813L248.818 74.7187C247.32 76.5158 246.5 78.7811 246.5 81.1205V119.342C246.5 121.031 247.229 122.638 248.5 123.75C249.771 124.862 250.5 126.469 250.5 128.158V196.672C250.5 198.483 249.781 200.219 248.5 201.5C247.219 202.781 246.5 204.517 246.5 206.328V244.88C246.5 247.219 247.32 249.484 248.818 251.281L251.682 254.719C253.18 256.516 254 258.781 254 261.12V295.829C254 296.922 254.297 297.995 254.86 298.933C256.148 301.08 255.976 303.801 254.427 305.769L241.503 322.186C239.607 324.594 236.711 326 233.645 326H21.1082C17.8999 326 14.8864 324.461 13.006 321.861L1.40729 305.828C-0.0529083 303.809 -0.168643 301.114 1.11312 298.978C1.69345 298.011 2 296.904 2 295.776V260.588C2 258.268 2.80624 256.021 4.2807 254.231L6.7193 251.269C8.19376 249.479 9 247.232 9 244.912V206.328C9 204.517 8.28058 202.781 7 201.5C5.71942 200.219 5 198.483 5 196.672V128.328C5 126.517 5.71942 124.781 7 123.5C8.28058 122.219 9 120.483 9 118.672V80.9311C9 78.7073 8.25878 76.547 6.89352 74.7917L4.10648 71.2083C2.74122 69.453 2 67.2927 2 65.0689V30.2238C2 29.0958 1.69345 27.9891 1.11312 27.0219C-0.168643 24.8856 -0.0529103 22.1908 1.40729 20.1723Z" fill="#0E0F0F" fill-opacity="0.1"/>
<path d="M1.54186 299.235L1.11312 298.978L1.54187 299.235C2.16882 298.19 2.5 296.995 2.5 295.776V260.588C2.5 258.384 3.26593 256.249 4.66666 254.548L7.10527 251.587C8.65345 249.707 9.5 247.348 9.5 244.912V206.328C9.5 204.385 8.7279 202.521 7.35355 201.146C6.16674 199.96 5.5 198.35 5.5 196.672V128.328C5.5 126.65 6.16674 125.04 7.35355 123.854C8.7279 122.479 9.5 120.615 9.5 118.672V80.9311C9.5 78.5961 8.72172 76.3278 7.2882 74.4847L4.50115 70.9014C3.20416 69.2338 2.5 67.1815 2.5 65.0689V30.2238C2.5 29.0052 2.16882 27.8095 1.54187 26.7646C0.363082 24.8 0.469517 22.3217 1.8124 20.4653L13.4111 4.43186C15.1975 1.96239 18.0603 0.5 21.1082 0.5H233.645C236.558 0.5 239.309 1.83558 241.11 4.12368L254.247 20.8114C255.521 22.4296 255.61 24.6836 254.468 26.3973C253.837 27.3436 253.5 28.4555 253.5 29.5929V64.8795C253.5 67.1019 252.721 69.254 251.298 70.9613L248.434 74.3986C246.861 76.2856 246 78.6642 246 81.1205V119.342C246 121.175 246.791 122.919 248.171 124.126C249.333 125.143 250 126.613 250 128.158V196.672C250 198.35 249.333 199.96 248.146 201.146C246.772 202.521 246 204.385 246 206.328V244.88C246 247.336 246.861 249.714 248.434 251.601L251.298 255.039C252.721 256.746 253.5 258.898 253.5 261.12V295.829C253.5 297.013 253.822 298.175 254.431 299.19C255.613 301.16 255.455 303.655 254.034 305.459L241.11 321.876C239.309 324.164 236.557 325.5 233.645 325.5H21.1082C18.0603 325.5 15.1975 324.038 13.4111 321.568L1.8124 305.535C0.469518 303.678 0.363083 301.2 1.54186 299.235Z" stroke="#3D4747"/>
</g>
<defs>
<filter id="filter0_b_2309_1988" x="-4.77344" y="-5" width="265.541" height="336" filterUnits="userSpaceOnUse" color-interpolation-filters="sRGB">
<feFlood flood-opacity="0" result="BackgroundImageFix"/>
<feGaussianBlur in="BackgroundImageFix" stdDeviation="2.5"/>
<feComposite in2="SourceAlpha" operator="in" result="effect1_backgroundBlur_2309_1988"/>
<feBlend mode="normal" in="SourceGraphic" in2="effect1_backgroundBlur_2309_1988" result="shape"/>
</filter>
</defs>
</svg>
