<svg width="514" height="119" viewBox="0 0 514 119" fill="none" xmlns="http://www.w3.org/2000/svg">
<g filter="url(#filter0_b_2312_2873)">
<path d="M3 5V22.3333V98.8354C3 99.3675 3.21207 99.8777 3.58927 100.253L21.8434 118.418C22.2182 118.791 22.7254 119 23.2541 119H511C512.105 119 513 118.105 513 117V99.6667V42.498C513 41.9658 512.788 41.4556 512.411 41.0803L474.728 3.58232C474.353 3.20937 473.846 3 473.317 3H5C3.89543 3 3 3.89543 3 5Z" fill="black" fill-opacity="0.02"/>
<path d="M3.5 22.3333V5C3.5 4.17157 4.17157 3.5 5 3.5H473.317C473.714 3.5 474.094 3.65703 474.375 3.93674L512.058 41.4347C512.341 41.7162 512.5 42.0989 512.5 42.498V99.6667V117C512.5 117.828 511.828 118.5 511 118.5H23.2541C22.8576 118.5 22.4772 118.343 22.1961 118.063L3.94195 99.8986C3.65905 99.6171 3.5 99.2345 3.5 98.8354V22.3333Z" stroke="#07FBFF"/>
</g>
<path d="M436 3H474.165C474.699 3 475.211 3.21375 475.587 3.59361L513.422 41.8482C513.792 42.2226 514 42.728 514 43.2546V117C514 118.105 513.105 119 512 119H510.25V44.2854C510.25 43.7549 510.039 43.2462 509.664 42.8711L474.129 7.33579C473.754 6.96071 473.245 6.75 472.715 6.75H441.555C441.114 6.75 440.685 6.60418 440.336 6.33525L436 3Z" fill="#07FBFF"/>
<path d="M2 0C0.89543 0 0 0.89543 0 2V7.54844C0 8.00258 0.154562 8.4432 0.438263 8.79783L3.8 13V3.5H43L38.6215 0.372533C38.2823 0.130246 37.8759 0 37.4591 0H2Z" fill="#07FBFF"/>
<defs>
<filter id="filter0_b_2312_2873" x="0" y="0" width="516" height="122" filterUnits="userSpaceOnUse" color-interpolation-filters="sRGB">
<feFlood flood-opacity="0" result="BackgroundImageFix"/>
<feGaussianBlur in="BackgroundImageFix" stdDeviation="1.5"/>
<feComposite in2="SourceAlpha" operator="in" result="effect1_backgroundBlur_2312_2873"/>
<feBlend mode="normal" in="SourceGraphic" in2="effect1_backgroundBlur_2312_2873" result="shape"/>
</filter>
</defs>
</svg>
