<svg width="328" height="49" viewBox="0 0 328 49" fill="none" xmlns="http://www.w3.org/2000/svg">
<g filter="url(#filter0_b_2347_2371)">
<path d="M1 2V9V40.6692C1 40.884 1.06917 41.0931 1.19726 41.2655L6.64298 48.5963C6.83164 48.8503 7.12935 49 7.44573 49H327C327.552 49 328 48.5523 328 48V41V17.3308C328 17.116 327.931 16.9069 327.803 16.7345L316.414 1.40368C316.225 1.14971 315.928 1 315.611 1H2C1.44772 1 1 1.44772 1 2Z" fill="#292C2E" fill-opacity="0.2"/>
<path d="M327.401 17.0326L327.799 16.737L327.401 17.0327C327.465 17.1188 327.5 17.2234 327.5 17.3308V41V48C327.5 48.2761 327.276 48.5 327 48.5H7.44573C7.28754 48.5 7.13869 48.4251 7.04436 48.2982L1.59863 40.9674C1.53458 40.8812 1.5 40.7766 1.5 40.6692V9V2C1.5 1.72386 1.72386 1.5 2 1.5H315.611C315.77 1.5 315.918 1.57485 316.013 1.70184L327.401 17.0326Z" stroke="#07FBFF"/>
</g>
<path d="M1 0C0.447715 0 0 0.447715 0 1V3.58579C0 3.851 0.105357 4.10536 0.292893 4.29289L2 6V3C2 2.44772 2.44772 2 3 2H18L16.2929 0.292893C16.1054 0.105357 15.851 0 15.5858 0H1Z" fill="#07FBFF"/>
<path d="M300 1H315.483C315.807 1 316.111 1.15738 316.299 1.42215L327.295 16.9522C327.316 16.9822 327.35 17 327.387 17C327.449 17 327.5 17.0506 327.5 17.1131V17.1704C327.5 17.1712 327.5 17.1719 327.501 17.1725C327.502 17.1736 327.502 17.1755 327.501 17.1766C327.5 17.1772 327.5 17.1779 327.5 17.1787V48C327.5 48.5523 327.052 49 326.5 49C325.948 49 325.5 48.5523 325.5 48V19.1495C325.5 18.9407 325.435 18.7372 325.313 18.5675L314.471 3.418C314.283 3.15565 313.98 3 313.657 3H302.414C302.149 3 301.895 2.89464 301.707 2.70711L300 1Z" fill="#07FBFF"/>
<defs>
<filter id="filter0_b_2347_2371" x="-19" y="-19" width="367" height="88" filterUnits="userSpaceOnUse" color-interpolation-filters="sRGB">
<feFlood flood-opacity="0" result="BackgroundImageFix"/>
<feGaussianBlur in="BackgroundImageFix" stdDeviation="10"/>
<feComposite in2="SourceAlpha" operator="in" result="effect1_backgroundBlur_2347_2371"/>
<feBlend mode="normal" in="SourceGraphic" in2="effect1_backgroundBlur_2347_2371" result="shape"/>
</filter>
</defs>
</svg>
