<svg width="619" height="214" viewBox="0 0 619 214" fill="none" xmlns="http://www.w3.org/2000/svg">
<g filter="url(#filter0_b_2035_4503)">
<path d="M20.1723 212.593L4.1388 200.994C1.53936 199.114 0 196.1 0 192.892L0 80.3546C0 77.2892 1.40587 74.3932 3.8144 72.4972L20.5021 59.3601C22.2903 57.9523 24.781 57.854 26.6746 59.1164C27.5388 59.6926 28.5543 60 29.5929 60H64.8795C67.2189 60 69.4842 60.8202 71.2813 62.3178L74.7187 65.1822C76.5158 66.6798 78.7811 67.5 81.1205 67.5H119.342C121.031 67.5 122.638 66.771 123.75 65.5C124.862 64.229 126.469 63.5 128.158 63.5L242.207 63.5C246.789 63.5 250.785 60.3862 251.904 55.9433L264.096 7.55669C265.215 3.11377 269.211 0 273.793 0H289.509C292.366 0 295.086 1.22148 296.983 3.35637L299.017 5.64363C300.914 7.77852 303.634 9 306.491 9H313.509C316.366 9 319.086 7.77852 320.983 5.64363L323.017 3.35637C324.914 1.22148 327.634 0 330.491 0H346.207C350.789 0 354.785 3.11377 355.904 7.55669L368.096 55.9433C369.215 60.3862 373.211 63.5 377.793 63.5H489.672C491.483 63.5 493.219 64.2194 494.5 65.5C495.781 66.7806 497.517 67.5 499.328 67.5H537.88C540.219 67.5 542.484 66.6798 544.281 65.1822L547.719 62.3178C549.516 60.8202 551.781 60 554.12 60H588.829C589.922 60 590.995 59.7028 591.933 59.1403C594.08 57.8517 596.801 58.024 598.769 59.5732L615.186 72.4972C617.594 74.3932 619 77.2892 619 80.3546V192.892C619 196.1 617.461 199.114 614.861 200.994L598.828 212.593C596.809 214.053 594.114 214.169 591.978 212.887C591.011 212.307 589.904 212 588.776 212H553.588C551.268 212 549.021 211.194 547.231 209.719L544.269 207.281C542.479 205.806 540.232 205 537.912 205H499.328C497.517 205 495.781 205.719 494.5 207C493.219 208.281 491.483 209 489.672 209L128.328 209C126.517 209 124.781 208.281 123.5 207C122.219 205.719 120.483 205 118.672 205H80.9311C78.7073 205 76.547 205.741 74.7917 207.106L71.2083 209.894C69.453 211.259 67.2927 212 65.0689 212H30.2238C29.0958 212 27.9891 212.307 27.0219 212.887C24.8856 214.169 22.1908 214.053 20.1723 212.593Z" fill="#0E0F0F" fill-opacity="0.1"/>
<path d="M20.4653 212.188L4.43186 200.589C1.96239 198.802 0.5 195.94 0.5 192.892L0.5 80.3546C0.5 77.4425 1.83558 74.6913 4.12368 72.89L20.8114 59.7529C22.4296 58.479 24.6836 58.39 26.3973 59.5324C27.3436 60.1633 28.4555 60.5 29.5929 60.5H64.8795C67.1019 60.5 69.254 61.2792 70.9613 62.7019L74.3986 65.5663C76.2856 67.1388 78.6642 68 81.1205 68H119.342C121.175 68 122.919 67.2087 124.126 65.8293C125.143 64.6668 126.613 64 128.158 64L242.207 64C247.018 64 251.213 60.7305 252.389 56.0655L264.581 7.67885C265.644 3.45808 269.44 0.5 273.793 0.5H289.509C292.223 0.5 294.807 1.6604 296.61 3.68855L298.643 5.97581C300.635 8.21744 303.491 9.5 306.491 9.5H313.509C316.509 9.5 319.365 8.21744 321.357 5.97581L323.39 3.68855C325.193 1.6604 327.777 0.5 330.491 0.5H346.207C350.56 0.5 354.356 3.45808 355.419 7.67885L367.611 56.0655C368.787 60.7305 372.982 64 377.793 64H489.672C491.35 64 492.96 64.6667 494.146 65.8535C495.521 67.2279 497.385 68 499.328 68H537.88C540.336 68 542.714 67.1388 544.601 65.5663L548.039 62.7019C549.746 61.2791 551.898 60.5 554.12 60.5H588.829C590.013 60.5 591.175 60.1782 592.19 59.569C594.16 58.3873 596.655 58.5453 598.459 59.966L614.876 72.89C617.164 74.6913 618.5 77.4425 618.5 80.3546V192.892C618.5 195.94 617.038 198.802 614.568 200.589L598.535 212.188L598.828 212.593L598.535 212.188C596.678 213.53 594.2 213.637 592.235 212.458C591.19 211.831 589.995 211.5 588.776 211.5H553.588C551.384 211.5 549.249 210.734 547.548 209.333L544.587 206.895C542.707 205.347 540.348 204.5 537.912 204.5H499.328C497.385 204.5 495.521 205.272 494.146 206.646C492.96 207.833 491.35 208.5 489.672 208.5L128.328 208.5C126.65 208.5 125.04 207.833 123.854 206.646C122.479 205.272 120.615 204.5 118.672 204.5H80.9311C78.5961 204.5 76.3278 205.278 74.4847 206.712L70.9014 209.499C69.2338 210.796 67.1815 211.5 65.0689 211.5H30.2238C29.0052 211.5 27.8095 211.831 26.7646 212.458C24.8 213.637 22.3217 213.53 20.4653 212.188Z" stroke="#3D4747"/>
</g>
<defs>
<filter id="filter0_b_2035_4503" x="-5" y="-5" width="629" height="223.774" filterUnits="userSpaceOnUse" color-interpolation-filters="sRGB">
<feFlood flood-opacity="0" result="BackgroundImageFix"/>
<feGaussianBlur in="BackgroundImageFix" stdDeviation="2.5"/>
<feComposite in2="SourceAlpha" operator="in" result="effect1_backgroundBlur_2035_4503"/>
<feBlend mode="normal" in="SourceGraphic" in2="effect1_backgroundBlur_2035_4503" result="shape"/>
</filter>
</defs>
</svg>
