<svg width="130" height="127" viewBox="0 0 130 127" fill="none" xmlns="http://www.w3.org/2000/svg">
<g filter="url(#filter0_b_2312_2560)">
<path d="M39.9136 2.2242L3.71216 31.4982C1.3643 33.3968 0 36.2545 0 39.274V77.7643C0 79.7123 0.568948 81.6179 1.63696 83.247L6.39393 90.503C7.46194 92.1321 8.03089 94.0377 8.03089 95.9857V117C8.03089 122.523 12.508 127 18.0309 127H85.3857C86.9966 127 88.5836 126.611 90.0118 125.866L124.626 107.804C127.929 106.081 130 102.664 130 98.9385V45.6886C130 43.009 128.925 40.4415 127.015 38.5618L90.7569 2.87319C88.8863 1.03196 86.3667 0 83.742 0H46.2014C43.9127 0 41.6932 0.785091 39.9136 2.2242Z" fill="black" fill-opacity="0.2"/>
<path d="M4.02655 31.887L40.2279 2.61299C41.9186 1.24584 44.0271 0.5 46.2014 0.5H83.742C86.2355 0.5 88.6291 1.48036 90.4061 3.22953L126.664 38.9181C128.478 40.7038 129.5 43.143 129.5 45.6886V98.9385C129.5 102.478 127.533 105.724 124.395 107.361L89.7805 125.422C88.4237 126.13 86.9161 126.5 85.3857 126.5H18.0309C12.7842 126.5 8.53089 122.247 8.53089 117V95.9857C8.53089 93.9403 7.93349 91.9395 6.81208 90.2289L2.05511 82.9728C1.0405 81.4252 0.5 79.6149 0.5 77.7643V39.274C0.5 36.4055 1.79609 33.6906 4.02655 31.887Z" stroke="#A7CECE"/>
</g>
<defs>
<filter id="filter0_b_2312_2560" x="-60" y="-60" width="250" height="247" filterUnits="userSpaceOnUse" color-interpolation-filters="sRGB">
<feFlood flood-opacity="0" result="BackgroundImageFix"/>
<feGaussianBlur in="BackgroundImageFix" stdDeviation="30"/>
<feComposite in2="SourceAlpha" operator="in" result="effect1_backgroundBlur_2312_2560"/>
<feBlend mode="normal" in="SourceGraphic" in2="effect1_backgroundBlur_2312_2560" result="shape"/>
</filter>
</defs>
</svg>
