<svg width="340" height="214" viewBox="0 0 340 214" fill="none" xmlns="http://www.w3.org/2000/svg">
<g filter="url(#filter0_b_2322_8950)">
<path d="M20.1723 212.593L4.1388 200.994C1.53936 199.114 0 196.1 0 192.892L0 80.3546C0 77.2892 1.40587 74.3932 3.8144 72.4972L20.5021 59.3601C22.2903 57.9523 24.781 57.854 26.6746 59.1164C27.5388 59.6926 28.5543 60 29.5929 60H64.8795C67.2189 60 69.4842 60.8202 71.2813 62.3178L74.7187 65.1822C76.5158 66.6798 78.7811 67.5 81.1205 67.5H89.3425C91.0313 67.5 92.6379 66.771 93.75 65.5C94.8621 64.229 96.4687 63.5 98.1575 63.5H122.207C126.789 63.5 130.785 60.3862 131.904 55.9433L144.76 4.92151C145.489 2.02794 148.091 0 151.075 0C152.936 0 154.707 0.795517 155.943 2.18593L159.017 5.64363C160.914 7.77852 163.634 9 166.491 9H173.509C176.366 9 179.086 7.77852 180.983 5.64363L184.057 2.18593C185.293 0.795517 187.064 0 188.925 0C191.909 0 194.511 2.02794 195.24 4.92151L208.096 55.9433C209.215 60.3862 213.211 63.5 217.793 63.5L240.672 63.5C242.483 63.5 244.219 64.2194 245.5 65.5C246.781 66.7806 248.517 67.5 250.328 67.5H258.879C261.219 67.5 263.484 66.6798 265.281 65.1822L268.719 62.3178C270.516 60.8202 272.781 60 275.12 60H309.829C310.922 60 311.995 59.7028 312.933 59.1403C315.08 57.8517 317.801 58.024 319.769 59.5732L336.186 72.4972C338.594 74.3932 340 77.2892 340 80.3546V192.892C340 196.1 338.461 199.114 335.861 200.994L319.828 212.593C317.809 214.053 315.114 214.169 312.978 212.887C312.011 212.307 310.904 212 309.776 212H274.588C272.268 212 270.021 211.194 268.231 209.719L265.269 207.281C263.479 205.806 261.232 205 258.912 205H250.328C248.517 205 246.781 205.719 245.5 207C244.219 208.281 242.483 209 240.672 209L98.3284 209C96.5174 209 94.7806 208.281 93.5 207C92.2194 205.719 90.4826 205 88.6716 205H80.9311C78.7073 205 76.547 205.741 74.7917 207.106L71.2083 209.894C69.453 211.259 67.2927 212 65.0689 212H30.2238C29.0958 212 27.9891 212.307 27.0219 212.887C24.8856 214.169 22.1908 214.053 20.1723 212.593Z" fill="#0E0F0F" fill-opacity="0.1"/>
<path d="M313.235 212.458L312.978 212.887L313.235 212.458C312.19 211.831 310.995 211.5 309.776 211.5H274.588C272.384 211.5 270.249 210.734 268.548 209.333L265.587 206.895C263.707 205.347 261.348 204.5 258.912 204.5H250.328C248.385 204.5 246.521 205.272 245.146 206.646C243.96 207.833 242.35 208.5 240.672 208.5L98.3284 208.5C96.65 208.5 95.0404 207.833 93.8536 206.646C92.4792 205.272 90.6152 204.5 88.6716 204.5H80.9311C78.5961 204.5 76.3278 205.278 74.4847 206.712L70.9014 209.499C69.2338 210.796 67.1815 211.5 65.0689 211.5H30.2238C29.0052 211.5 27.8095 211.831 26.7646 212.458C24.8 213.637 22.3217 213.53 20.4653 212.188L4.43186 200.589C1.96239 198.802 0.5 195.94 0.5 192.892L0.5 80.3546C0.5 77.4425 1.83558 74.6913 4.12368 72.89L20.8114 59.7529C22.4296 58.479 24.6836 58.39 26.3973 59.5324C27.3436 60.1633 28.4555 60.5 29.5929 60.5H64.8795C67.1019 60.5 69.254 61.2792 70.9613 62.7019L74.3986 65.5663C76.2856 67.1388 78.6642 68 81.1205 68H89.3425C91.1755 68 92.9192 67.2087 94.1263 65.8293C95.1434 64.6668 96.6129 64 98.1575 64H122.207C127.018 64 131.213 60.7305 132.389 56.0655L145.245 5.04367C145.918 2.37225 148.32 0.5 151.075 0.5C152.793 0.5 154.428 1.23445 155.569 2.51811L158.643 5.97581C160.635 8.21744 163.491 9.5 166.491 9.5H173.509C176.509 9.5 179.365 8.21744 181.357 5.97581L184.431 2.51811C185.572 1.23445 187.207 0.5 188.925 0.5C191.68 0.5 194.082 2.37225 194.755 5.04367L207.611 56.0655C208.787 60.7305 212.982 64 217.793 64L240.672 64C242.35 64 243.96 64.6667 245.146 65.8535C246.521 67.2279 248.385 68 250.328 68H258.879C261.336 68 263.714 67.1388 265.601 65.5663L269.039 62.7019C270.746 61.2791 272.898 60.5 275.12 60.5H309.829C311.013 60.5 312.175 60.1782 313.19 59.569C315.16 58.3873 317.655 58.5453 319.459 59.966L335.876 72.89C338.164 74.6913 339.5 77.4425 339.5 80.3546V192.892C339.5 195.94 338.038 198.802 335.568 200.589L319.535 212.188C317.678 213.53 315.2 213.637 313.235 212.458Z" stroke="#3D4747"/>
</g>
<defs>
<filter id="filter0_b_2322_8950" x="-5" y="-5" width="350" height="223.774" filterUnits="userSpaceOnUse" color-interpolation-filters="sRGB">
<feFlood flood-opacity="0" result="BackgroundImageFix"/>
<feGaussianBlur in="BackgroundImageFix" stdDeviation="2.5"/>
<feComposite in2="SourceAlpha" operator="in" result="effect1_backgroundBlur_2322_8950"/>
<feBlend mode="normal" in="SourceGraphic" in2="effect1_backgroundBlur_2322_8950" result="shape"/>
</filter>
</defs>
</svg>
