<svg width="130" height="127" viewBox="0 0 130 127" fill="none" xmlns="http://www.w3.org/2000/svg">
<g filter="url(#filter0_b_2312_2566)">
<path d="M90.0864 2.2242L126.288 31.4982C128.636 33.3968 130 36.2545 130 39.274V77.7643C130 79.7123 129.431 81.6179 128.363 83.247L123.606 90.503C122.538 92.1321 121.969 94.0377 121.969 95.9857V117C121.969 122.523 117.492 127 111.969 127H44.6143C43.0034 127 41.4164 126.611 39.9882 125.866L5.37395 107.804C2.07103 106.081 0 102.664 0 98.9385V45.6886C0 43.009 1.07542 40.4415 2.98512 38.5618L39.2431 2.87319C41.1137 1.03196 43.6333 0 46.258 0H83.7986C86.0873 0 88.3068 0.785091 90.0864 2.2242Z" fill="black" fill-opacity="0.2"/>
<path d="M125.973 31.887L89.7721 2.61299C88.0814 1.24584 85.9729 0.5 83.7986 0.5H46.258C43.7645 0.5 41.3709 1.48036 39.5939 3.22953L3.33587 38.9181C1.52165 40.7038 0.5 43.143 0.5 45.6886V98.9385C0.5 102.478 2.46748 105.724 5.60526 107.361L40.2195 125.422C41.5763 126.13 43.0839 126.5 44.6143 126.5H111.969C117.216 126.5 121.469 122.247 121.469 117V95.9857C121.469 93.9403 122.067 91.9395 123.188 90.2289L127.945 82.9728C128.959 81.4252 129.5 79.6149 129.5 77.7643V39.274C129.5 36.4055 128.204 33.6906 125.973 31.887Z" stroke="#A7CECE"/>
</g>
<defs>
<filter id="filter0_b_2312_2566" x="-60" y="-60" width="250" height="247" filterUnits="userSpaceOnUse" color-interpolation-filters="sRGB">
<feFlood flood-opacity="0" result="BackgroundImageFix"/>
<feGaussianBlur in="BackgroundImageFix" stdDeviation="30"/>
<feComposite in2="SourceAlpha" operator="in" result="effect1_backgroundBlur_2312_2566"/>
<feBlend mode="normal" in="SourceGraphic" in2="effect1_backgroundBlur_2312_2566" result="shape"/>
</filter>
</defs>
</svg>
