<svg width="31" height="574" viewBox="0 0 31 574" fill="none" xmlns="http://www.w3.org/2000/svg">
<path d="M29.5846 40.0847L0.803054 1.42207C0.228025 0.649625 -0.999378 1.05655 -0.999087 2.01952L-0.826759 571.97C-0.826467 572.934 0.403413 573.339 0.976987 572.565L29.6035 533.893C29.8436 533.568 29.8652 533.132 29.6583 532.785L24.9167 524.846C24.8242 524.691 24.7753 524.513 24.7753 524.333V454.103C24.7753 453.872 24.6954 453.648 24.5492 453.47L12.1138 438.275C11.9675 438.096 11.8876 437.873 11.8876 437.642V359.173C11.8876 358.895 12.003 358.63 12.2062 358.441L18.7096 352.385C18.9127 352.196 19.0281 351.931 19.0281 351.653V221.305C19.0281 221.022 18.9088 220.753 18.6998 220.564L12.216 214.685C12.0069 214.496 11.8876 214.227 11.8876 213.944V135.84C11.8876 135.605 11.9702 135.378 12.1208 135.198L24.5421 120.358C24.6927 120.178 24.7753 119.95 24.7753 119.716V48.9875C24.7753 48.7942 24.8313 48.6051 24.9365 48.443L29.6212 41.2263C29.8489 40.8756 29.8343 40.4202 29.5846 40.0847Z" fill="#0E0F0F" stroke="#3D4747"/>
</svg>
