<svg width="31" height="574" viewBox="0 0 31 574" fill="none" xmlns="http://www.w3.org/2000/svg">
<path d="M1.41544 40.0847L30.1969 1.42207C30.772 0.649625 31.9994 1.05655 31.9991 2.01952L31.8268 571.97C31.8265 572.934 30.5966 573.339 30.023 572.565L1.39647 533.893C1.15637 533.568 1.13476 533.132 1.34167 532.785L6.08327 524.846C6.17584 524.691 6.22472 524.513 6.22472 524.333V454.103C6.22472 453.872 6.30462 453.648 6.45085 453.47L18.8862 438.275C19.0325 438.096 19.1124 437.873 19.1124 437.642V359.173C19.1124 358.895 18.997 358.63 18.7938 358.441L12.2904 352.385C12.0873 352.196 11.9719 351.931 11.9719 351.653V221.305C11.9719 221.022 12.0912 220.753 12.3002 220.564L18.784 214.685C18.9931 214.496 19.1124 214.227 19.1124 213.944V135.84C19.1124 135.605 19.0298 135.378 18.8792 135.198L6.45788 120.358C6.30726 120.178 6.22472 119.95 6.22472 119.716V48.9875C6.22472 48.7942 6.16872 48.6051 6.06349 48.443L1.37881 41.2263C1.15111 40.8756 1.16573 40.4202 1.41544 40.0847Z" fill="#0E0F0F" stroke="#3D4747"/>
</svg>
