<svg id="Layer_1" data-name="Layer 1" xmlns="http://www.w3.org/2000/svg" viewBox="0 0 1000 1000"><defs><style>.cls-1,.cls-2{fill:none;stroke:#fff;stroke-linecap:round;stroke-linejoin:round;}.cls-1{stroke-dasharray:5 5;}.cls-2{stroke-width:2px;}.cls-3,.cls-4{fill:#fff;}.cls-4{font-size:24.48px;font-family:MyriadPro-Regular, Myriad Pro;}</style></defs><title>Untitled-1</title><rect x="184.68" y="194.23" width="634.77" height="634.77" transform="translate(508.82 -205.17) rotate(45)"/><line class="cls-1" x1="742.18" y1="442.51" x2="261.96" y2="442.51"/><line class="cls-1" x1="744.13" y1="577" x2="260.09" y2="577"/><line class="cls-1" x1="395.62" y1="308.85" x2="608.52" y2="308.85"/><line class="cls-1" x1="395.71" y1="712.62" x2="608.52" y2="712.62"/><line class="cls-1" x1="502.07" y1="205.45" x2="502.07" y2="815.88"/><line class="cls-1" x1="808.21" y1="508.55" x2="504.23" y2="204.56"/><line class="cls-1" x1="499.9" y1="816.81" x2="195.92" y2="512.82"/><line class="cls-1" x1="195.85" y1="508.61" x2="499.84" y2="204.63"/><line class="cls-1" x1="503.97" y1="817.16" x2="807.96" y2="513.17"/><circle class="cls-2" cx="194.15" cy="512.07" r="2.83"/><circle class="cls-2" cx="501.86" cy="202.61" r="2.83"/><circle class="cls-2" cx="502.27" cy="820.62" r="2.83"/><circle class="cls-2" cx="809.98" cy="512.03" r="2.83"/><path class="cls-3" d="M413.26,578.05c5.85-17.45,17.42-30.69,31.48-42.17-5.58,1.27-19.33,9.45-30.86,18.06,1.57-2.21,3-4.5,4.71-6.64,5.47-7,12.64-11.84,20.29-16.09l8.38-4.69c.54-.31,1.07-.67,1.8-1.13-2-.49-3.84-.84-5.6-1.35-9-2.62-16.51-7.62-23.31-13.87A95.47,95.47,0,0,1,404.81,492a2.25,2.25,0,0,1-.38-.94c1.74,1.83,3.43,3.7,5.21,5.47,9.14,9.06,19.75,15.48,32.47,18.2,9.54,2,18.87,1.09,28-1.84,8.64-2.77,17.17-5.88,25.78-8.76,5.17-1.73,10.4-3.3,15.94-3.3A17.1,17.1,0,0,1,526,509.37c-9.17-1.65-16.45,2.11-22.91,8.13a19.28,19.28,0,0,0-2.25,2.52,35.54,35.54,0,0,1-15.21,11.35,146.56,146.56,0,0,1-14.56,5.45,96.08,96.08,0,0,0-30.66,15.95,170.5,170.5,0,0,0-26.26,24.83l-.59.67Z"/><path class="cls-3" d="M503,498.4c2.73-1.37,5.44-2.8,8.2-4.12,8.66-4.16,17.74-7.29,26.73-10.63a105.46,105.46,0,0,0,51.49-40,3,3,0,0,1,.31-.39s.08,0,.2-.06a38.59,38.59,0,0,1-4.58,13c-5,8.94-12,16-20.13,22.06a6.7,6.7,0,0,0-1.18,1c9.88-5.11,18.87-11.63,28-17.93a35.75,35.75,0,0,1-6.65,8.83c-7.46,7.55-16.26,13.26-25.48,18.37-2.47,1.37-5,2.64-7.44,4.05,17.31-6.34,32.56-16.21,47.25-27.73-.32.66-.49,1.06-.7,1.44A58,58,0,0,1,582.35,485a104,104,0,0,1-52.68,20.31,2.59,2.59,0,0,1-1.54-.61c-2.71-2-5.29-4.19-8.11-6a14.43,14.43,0,0,0-12.85-1.31l-4,1.33Z"/><path class="cls-3" d="M457.22,512.23c-8.42,1.29-16.59.87-24-3.88a58.52,58.52,0,0,1-20-21c-1.93-3.5-3.54-8.17-3.68-10.59,1.81,2.37,3.54,4.74,5.37,7,6.49,8.05,13.74,15.3,22.5,20.93,5.87,3.78,12.16,6.56,19.19,7.35A3,3,0,0,1,457.22,512.23Z"/><path class="cls-3" d="M466,508.56a33.41,33.41,0,0,1-10.93.16c-6-.74-10.76-3.79-15.2-7.58-6.45-5.51-11.73-11.86-14.41-20.07-.36-1.08-.59-2.21-.92-3.5,2.48,3.11,4.72,6.13,7.17,9,6,6.95,12.66,13.13,20.83,17.53A40.11,40.11,0,0,0,466,508.56Z"/><text class="cls-4" transform="translate(283.48 458.28)">+</text><text class="cls-4" transform="translate(706.51 458.28)">+</text><text class="cls-4" transform="translate(282.87 573.95)">+</text><text class="cls-4" transform="translate(706.51 573.95)">+</text><text class="cls-4" transform="translate(495.25 301.23) rotate(90)">+</text><text class="cls-4" transform="translate(495.25 705.2) rotate(90)">+</text></svg>